<?xml version="1.0" encoding="UTF-8" standalone="no"?>
<!-- Created with Inkscape (http://www.inkscape.org/) -->

<svg
   xmlns:dc="http://purl.org/dc/elements/1.1/"
   xmlns:cc="http://creativecommons.org/ns#"
   xmlns:rdf="http://www.w3.org/1999/02/22-rdf-syntax-ns#"
   xmlns:svg="http://www.w3.org/2000/svg"
   xmlns="http://www.w3.org/2000/svg"
   xmlns:sodipodi="http://sodipodi.sourceforge.net/DTD/sodipodi-0.dtd"
   xmlns:inkscape="http://www.inkscape.org/namespaces/inkscape"
   width="159.53455mm"
   height="89.275017mm"
   viewBox="0 0 565.27989 316.3288"
   id="svg2"
   version="1.1"
   inkscape:version="0.91 r13725"
   sodipodi:docname="lean_startup_methodology.svg"
   inkscape:export-filename="/media/data/vveitas/repos/ovn_presentation/pictures/lean_startup_methodology.png"
   inkscape:export-xdpi="159.21001"
   inkscape:export-ydpi="159.21001">
  <defs
     id="defs4" />
  <sodipodi:namedview
     id="base"
     pagecolor="#ffffff"
     bordercolor="#666666"
     borderopacity="1.0"
     inkscape:pageopacity="0.0"
     inkscape:pageshadow="2"
     inkscape:zoom="1.4"
     inkscape:cx="157.73787"
     inkscape:cy="159.15964"
     inkscape:document-units="px"
     inkscape:current-layer="layer1"
     showgrid="false"
     inkscape:window-width="1920"
     inkscape:window-height="1056"
     inkscape:window-x="1080"
     inkscape:window-y="333"
     inkscape:window-maximized="1"
     fit-margin-top="5"
     fit-margin-left="10"
     fit-margin-right="10"
     fit-margin-bottom="5" />
  <metadata
     id="metadata7">
    <rdf:RDF>
      <cc:Work
         rdf:about="">
        <dc:format>image/svg+xml</dc:format>
        <dc:type
           rdf:resource="http://purl.org/dc/dcmitype/StillImage" />
        <dc:title></dc:title>
      </cc:Work>
    </rdf:RDF>
  </metadata>
  <g
     inkscape:label="Layer 1"
     inkscape:groupmode="layer"
     id="layer1"
     transform="translate(-157.61425,-307.94781)">
    <path
       style="fill:none;fill-rule:evenodd;stroke:#000000;stroke-width:1px;stroke-linecap:butt;stroke-linejoin:miter;stroke-opacity:1"
       d="M 193.94929,565.97375 324.25897,357.88233 457.5991,566.47883 Z"
       id="path3340"
       inkscape:connector-curvature="0" />
    <path
       style="fill:none;fill-rule:evenodd;stroke:#000000;stroke-width:1.31041026px;stroke-linecap:butt;stroke-linejoin:miter;stroke-opacity:1"
       d="m 227.85106,511.29212 c 455.36958,0.35447 455.36958,0.35447 455.36958,0.35447 l 0,0"
       id="path3342"
       inkscape:connector-curvature="0" />
    <path
       style="fill:none;fill-rule:evenodd;stroke:#000000;stroke-width:0.77522302px;stroke-linecap:butt;stroke-linejoin:miter;stroke-opacity:1"
       d="m 267.2551,447.57131 c 412.88726,-0.13683 412.88726,-0.13683 412.88726,-0.13683 l 0,0"
       id="path3342-7"
       inkscape:connector-curvature="0" />
    <text
       xml:space="preserve"
       style="font-style:normal;font-variant:normal;font-weight:normal;font-stretch:normal;font-size:17.5px;line-height:125%;font-family:'TeX Gyre Pagella Math';-inkscape-font-specification:'TeX Gyre Pagella Math';text-align:center;letter-spacing:0px;word-spacing:0px;text-anchor:middle;fill:#000000;fill-opacity:1;stroke:none;stroke-width:1px;stroke-linecap:butt;stroke-linejoin:miter;stroke-opacity:1"
       x="324.043"
       y="544.86224"
       id="text3359"
       sodipodi:linespacing="125%"><tspan
         sodipodi:role="line"
         x="324.043"
         y="544.86224"
         id="tspan3363"
         style="font-style:normal;font-variant:normal;font-weight:normal;font-stretch:normal;font-size:17.5px;font-family:'TeX Gyre Pagella Math';-inkscape-font-specification:'TeX Gyre Pagella Math';text-align:center;text-anchor:middle">Vision</tspan></text>
    <text
       xml:space="preserve"
       style="font-style:normal;font-variant:normal;font-weight:normal;font-stretch:normal;font-size:17.5px;line-height:125%;font-family:'TeX Gyre Pagella Math';-inkscape-font-specification:'TeX Gyre Pagella Math';text-align:center;letter-spacing:0px;word-spacing:0px;text-anchor:middle;fill:#000000;fill-opacity:1;stroke:none;stroke-width:1px;stroke-linecap:butt;stroke-linejoin:miter;stroke-opacity:1"
       x="327.42679"
       y="484.29352"
       id="text3359-2"
       sodipodi:linespacing="125%"><tspan
         sodipodi:role="line"
         x="327.42679"
         y="484.29352"
         style="font-style:normal;font-variant:normal;font-weight:normal;font-stretch:normal;font-size:17.5px;font-family:'TeX Gyre Pagella Math';-inkscape-font-specification:'TeX Gyre Pagella Math';text-align:center;text-anchor:middle"
         id="tspan3390">Strategy</tspan><tspan
         sodipodi:role="line"
         x="327.42679"
         y="506.16852"
         style="font-style:normal;font-variant:normal;font-weight:normal;font-stretch:normal;font-size:17.5px;font-family:'TeX Gyre Pagella Math';-inkscape-font-specification:'TeX Gyre Pagella Math';text-align:center;text-anchor:middle"
         id="tspan3388" /></text>
    <text
       xml:space="preserve"
       style="font-style:normal;font-variant:normal;font-weight:normal;font-stretch:normal;font-size:17.5px;line-height:125%;font-family:'TeX Gyre Pagella Math';-inkscape-font-specification:'TeX Gyre Pagella Math';text-align:center;letter-spacing:0px;word-spacing:0px;text-anchor:middle;fill:#000000;fill-opacity:1;stroke:none;stroke-width:1px;stroke-linecap:butt;stroke-linejoin:miter;stroke-opacity:1"
       x="324.13446"
       y="426.43466"
       id="text3359-2-6"
       sodipodi:linespacing="125%"><tspan
         sodipodi:role="line"
         x="324.13446"
         y="426.43466"
         style="font-style:normal;font-variant:normal;font-weight:normal;font-stretch:normal;font-size:17.5px;font-family:'TeX Gyre Pagella Math';-inkscape-font-specification:'TeX Gyre Pagella Math';text-align:center;text-anchor:middle"
         id="tspan3422"> Product</tspan></text>
    <path
       style="fill:none;fill-rule:evenodd;stroke:#000000;stroke-width:1.34119463px;stroke-linecap:butt;stroke-linejoin:miter;stroke-opacity:1"
       d="M 304.42986,326.02538 483.42728,606.19902"
       id="path3498"
       inkscape:connector-curvature="0" />
    <text
       xml:space="preserve"
       style="font-style:normal;font-variant:normal;font-weight:normal;font-stretch:normal;font-size:17.5px;line-height:125%;font-family:'TeX Gyre Pagella Math';-inkscape-font-specification:'TeX Gyre Pagella Math';text-align:center;letter-spacing:0px;word-spacing:0px;text-anchor:middle;fill:#000000;fill-opacity:1;stroke:none;stroke-width:1px;stroke-linecap:butt;stroke-linejoin:miter;stroke-opacity:1"
       x="537.20557"
       y="404.25397"
       id="text3359-2-6-8"
       sodipodi:linespacing="125%"><tspan
         sodipodi:role="line"
         x="537.20557"
         y="404.25397"
         style="font-style:normal;font-variant:normal;font-weight:normal;font-stretch:normal;font-size:17.5px;font-family:'TeX Gyre Pagella Math';-inkscape-font-specification:'TeX Gyre Pagella Math';text-align:center;text-anchor:middle"
         id="tspan4174"> Test hypotheses via</tspan><tspan
         sodipodi:role="line"
         x="537.20557"
         y="426.12897"
         style="font-style:normal;font-variant:normal;font-weight:normal;font-stretch:normal;font-size:17.5px;font-family:'TeX Gyre Pagella Math';-inkscape-font-specification:'TeX Gyre Pagella Math';text-align:center;text-anchor:middle"
         id="tspan4205">experimentation</tspan></text>
    <text
       xml:space="preserve"
       style="font-style:normal;font-variant:normal;font-weight:normal;font-stretch:normal;font-size:17.5px;line-height:125%;font-family:'TeX Gyre Pagella Math';-inkscape-font-specification:'TeX Gyre Pagella Math';text-align:center;letter-spacing:0px;word-spacing:0px;text-anchor:middle;fill:#000000;fill-opacity:1;stroke:none;stroke-width:1px;stroke-linecap:butt;stroke-linejoin:miter;stroke-opacity:1"
       x="547.71741"
       y="471.59827"
       id="text3359-2-6-8-9"
       sodipodi:linespacing="125%"><tspan
         sodipodi:role="line"
         x="549.90491"
         y="471.59827"
         style="font-style:normal;font-variant:normal;font-weight:normal;font-stretch:normal;font-size:17.5px;font-family:'TeX Gyre Pagella Math';-inkscape-font-specification:'TeX Gyre Pagella Math';text-align:center;text-anchor:middle"
         id="tspan4174-0"> Learn by formulating / validating / </tspan><tspan
         sodipodi:role="line"
         x="547.71741"
         y="493.47327"
         style="font-style:normal;font-variant:normal;font-weight:normal;font-stretch:normal;font-size:17.5px;font-family:'TeX Gyre Pagella Math';-inkscape-font-specification:'TeX Gyre Pagella Math';text-align:center;text-anchor:middle"
         id="tspan4207">falsifying hypetheses</tspan></text>
    <text
       xml:space="preserve"
       style="font-style:normal;font-variant:normal;font-weight:normal;font-stretch:normal;font-size:17.5px;line-height:125%;font-family:'TeX Gyre Pagella Math';-inkscape-font-specification:'TeX Gyre Pagella Math';text-align:center;letter-spacing:0px;word-spacing:0px;text-anchor:middle;fill:#000000;fill-opacity:1;stroke:none;stroke-width:1px;stroke-linecap:butt;stroke-linejoin:miter;stroke-opacity:1"
       x="552.39655"
       y="533.1756"
       id="text3359-2-6-8-3"
       sodipodi:linespacing="125%"><tspan
         sodipodi:role="line"
         x="552.39655"
         y="533.1756"
         style="font-style:normal;font-variant:normal;font-weight:normal;font-stretch:normal;font-size:17.5px;font-family:'TeX Gyre Pagella Math';-inkscape-font-specification:'TeX Gyre Pagella Math';text-align:center;text-anchor:middle"
         id="tspan4205-0"> Steering via setting</tspan><tspan
         sodipodi:role="line"
         x="552.39655"
         y="555.0506"
         style="font-style:normal;font-variant:normal;font-weight:normal;font-stretch:normal;font-size:17.5px;font-family:'TeX Gyre Pagella Math';-inkscape-font-specification:'TeX Gyre Pagella Math';text-align:center;text-anchor:middle"
         id="tspan4232">the direction</tspan></text>
    <rect
       style="overflow:visible;opacity:0.5;fill:#ab0000;fill-opacity:0.53987732;stroke:none"
       id="rect4216"
       width="525.37457"
       height="73.841286"
       x="183.4984"
       y="515.21313" />
    <rect
       style="overflow:visible;opacity:0.5;fill:#806013;fill-opacity:0.20125786;stroke:none"
       id="rect4216-3-5-2"
       width="524.66022"
       height="72.411118"
       x="183.49841"
       y="371.20612" />
    <rect
       style="overflow:visible;opacity:0.5;fill:#005200;fill-opacity:0.53987732;stroke:none"
       id="rect4216-3-5"
       width="525.37451"
       height="57.966957"
       x="183.14127"
       y="449.22174" />
    <path
       style="fill:#ab0000;fill-opacity:0.53987732;stroke:none"
       id="path4287"
       d="m 652.74887,544.81016 c 1.50895,-0.69625 3.11971,-1.21381 4.56226,-2.04246 1.29093,-0.72961 2.58243,-1.47458 3.81756,-2.2983 -2.12071,1.44289 4.10564,-2.61603 2.01184,-1.18054 -14.28604,9.7945 -9.65869,6.81869 -6.88853,4.51705 3.05382,-2.09057 6.10764,-4.18114 9.16145,-6.27171 0.19826,-0.13445 0.79301,-0.53786 0.5948,-0.40333 -2.65531,1.80224 -5.3011,3.61859 -7.96614,5.40643 -0.22562,0.15136 0.43285,-0.32856 0.64667,-0.49619 1.9042,-1.4929 -0.65079,0.48166 1.29858,-1.01977 1.06531,-1.03196 2.27591,-1.88761 3.39935,-2.85035 0.91989,-0.9234 1.84549,-1.84889 2.68182,-2.84972 0.77543,-0.79567 1.37491,-1.70371 1.96444,-2.63534 0.67775,-1.1052 1.16044,-2.31107 1.75877,-3.45753 0.61546,-1.17219 0.9866,-2.42436 1.28417,-3.70618 0.3641,-1.22287 0.61739,-2.47622 0.87845,-3.72447 0.15991,-1.2529 0.53828,-2.45652 0.70497,-3.7076 0.0907,-1.38218 0.34654,-2.74259 0.44986,-4.12378 0.0796,-1.41035 -0.002,-2.8224 -0.0888,-4.23021 -0.18506,-1.68178 -0.0729,-3.35984 0.0359,-5.04058 0.11084,-1.39588 -0.0306,-2.79426 0.12932,-4.18552 -0.0423,-1.35686 0.41956,-0.41131 -0.17281,0.31978 -3.23215,1.88129 -1.56734,0.92515 7.79745,-5.32548 0.16831,-0.11232 -0.31251,0.25745 -0.46228,0.39354 -0.48213,0.43814 -0.94484,0.89591 -1.38821,1.37266 -0.7966,0.97461 -1.85109,1.67808 -2.76401,2.53172 -0.77598,0.69397 -1.50719,1.44675 -2.16736,2.25238 -0.8013,0.99961 -1.45078,2.10675 -2.21801,3.1311 -2.17177,3.3362 1.68837,0.39354 -9.41281,4.71815 -0.30691,0.11951 0.33842,-0.56583 0.52776,-0.83533 0.5213,-0.742 0.82651,-1.03806 1.44221,-1.7234 1.44783,-1.45687 3.04169,-2.74453 4.64177,-4.02593 0.3948,-0.21775 0.65766,-0.60158 1.02234,-0.85545 3.01966,-2.1021 6.15363,-4.04327 9.10044,-6.24631 2.63539,-1.97021 -5.43605,3.7092 -8.1653,5.5472 -0.15192,0.10227 0.2804,-0.23679 0.43216,-0.33933 3.03699,-2.05186 6.08857,-4.082 9.13286,-6.123 1.21871,-0.22486 2.26022,0.41525 3.35689,0.81918 1.52972,0.6076 3.03233,1.2564 4.49178,2.0219 0.69333,0.32754 1.40932,0.55865 2.10207,0.88708 0,0 -8.37132,6.38451 -8.37132,6.38451 l 0,0 c -0.7017,-0.3125 -1.42045,-0.58523 -2.10163,-0.94241 -1.4496,-0.72321 -2.92866,-1.35431 -4.45685,-1.89388 -0.92784,-0.34859 -1.88433,-0.74577 -2.78102,-0.10002 2.72617,-1.86038 5.45476,-3.71726 8.17853,-5.58117 0.15009,-0.10279 -0.30759,0.19441 -0.45745,0.29752 -3.02049,2.07842 -6.06056,4.12894 -9.05342,6.24695 -2.67071,1.89004 5.38305,-3.72062 8.08688,-5.56294 0.38184,-0.26018 -1.5854,1.169 -1.03989,0.91652 -1.68294,1.20487 -3.24468,2.54894 -4.79736,3.91437 -0.93311,0.9191 -0.65829,0.6009 -1.45726,1.5638 -0.18673,0.22504 -0.30136,0.53151 -0.55236,0.68156 -22.79226,13.62556 -11.83522,7.46849 -9.24822,5.08017 0.69,-1.08283 1.53164,-2.06399 2.19063,-3.1711 0.62501,-0.88863 1.33409,-1.65705 2.06578,-2.4525 0.9794,-0.76815 1.85637,-1.66325 2.86239,-2.40376 2.95079,-3.68421 7.26625,-5.83337 11.19385,-8.44439 1.14819,-0.41836 1.65336,0.6586 1.58391,1.67329 -0.24522,1.37621 -0.17105,2.73658 -0.20846,4.13361 -0.10442,1.64175 -0.36518,3.27682 -0.0927,4.91743 0.0967,1.44471 0.19246,2.89218 0.15554,4.34101 -0.061,1.39668 -0.30483,2.76402 -0.41011,4.15112 -0.0918,1.30218 -0.44452,2.51947 -0.67302,3.7909 -0.21017,1.28192 -0.50545,2.55126 -0.81433,3.8103 -0.45699,1.26701 -0.54679,2.66177 -1.19437,3.8759 -0.56609,1.16327 -1.14713,2.31606 -1.71182,3.48104 -0.5081,1.04007 -1.12701,1.98267 -1.87681,2.86227 -0.92452,0.93934 -1.70202,2.02363 -2.68391,2.91136 -1.00284,1.14941 -2.37353,1.81354 -3.36671,2.97305 -5.5305,4.40387 -21.38032,14.66137 -3.71208,2.76209 -0.38471,0.29539 -0.70631,0.6705 -1.10497,0.94676 -3.70726,2.56893 -7.33375,5.15249 -11.18831,7.45011 -1.27577,0.76837 -2.53355,1.57398 -3.88036,2.21547 -1.57493,0.68735 -3.13691,1.42107 -4.77255,1.95434 0,0 7.95605,-7.00363 7.95605,-7.00363 z"
       inkscape:connector-curvature="0" />
    <path
       style="fill:#ab0000;fill-opacity:0.53987732;stroke:none"
       id="path4287-3"
       d="m 673.23383,449.73162 c -0.0632,-1.66063 0.0778,-3.34662 -0.13315,-4.9968 -0.1777,-1.47216 -0.36943,-2.95075 -0.65543,-4.40754 0.51751,2.51227 -0.83812,-4.79557 -0.31708,-2.31098 3.55496,16.95244 2.58508,11.53698 1.52422,8.09521 -0.75704,-3.6226 -1.51406,-7.2452 -2.2711,-10.8678 -0.048,-0.23468 -0.19197,-0.93877 -0.14388,-0.70409 0.64392,3.14391 1.30452,6.28443 1.9314,9.43179 0.0531,0.26645 -0.13705,-0.52587 -0.2097,-0.78767 -0.64685,-2.33159 0.1947,0.78588 -0.44267,-1.59069 -0.54353,-1.38 -0.86848,-2.8264 -1.32578,-4.23347 -0.49917,-1.20404 -0.99807,-2.41415 -1.60084,-3.57077 -0.43674,-1.02159 -1.0448,-1.9239 -1.67848,-2.82608 -0.76005,-1.05032 -1.68795,-1.9592 -2.51661,-2.95204 -0.84581,-1.01854 -1.85932,-1.84222 -2.92849,-2.60937 -0.98916,-0.80593 -2.04903,-1.52126 -3.10121,-2.2418 -1.09533,-0.62895 -2.06126,-1.44067 -3.15231,-2.07517 -1.24129,-0.61468 -2.39903,-1.37352 -3.63454,-1.99949 -1.27157,-0.61529 -2.60673,-1.0821 -3.93973,-1.5431 -1.62384,-0.4752 -3.13007,-1.22333 -4.64001,-1.96953 -1.2462,-0.63856 -2.59163,-1.04512 -3.8147,-1.72726 -1.26897,-0.48222 -0.21856,-0.54539 0.22887,0.28239 0.4953,3.70685 0.25203,1.80247 -1.92146,-9.24494 -0.0391,-0.19855 0.11766,0.38743 0.18576,0.57798 0.21931,0.61345 0.4642,1.21651 0.73405,1.80901 0.59382,1.10987 0.83822,2.35369 1.27566,3.5245 0.34264,0.98301 0.75676,1.9473 1.24697,2.8663 0.61509,1.12382 1.38777,2.14878 2.03879,3.25064 2.24593,3.28674 1.01194,-1.40763 0.74019,10.50305 -0.008,0.32928 -0.39242,-0.52982 -0.56851,-0.80816 -0.4848,-0.76633 -0.64089,-1.16186 -1.03713,-1.99358 -0.78889,-1.89641 -1.36546,-3.86263 -1.93388,-5.83219 -0.0492,-0.44817 -0.30277,-0.83828 -0.39708,-1.27251 -0.78079,-3.5955 -1.36909,-7.23469 -2.27106,-10.8017 -0.80665,-3.19004 1.33632,6.44383 1.98484,9.66973 0.0361,0.17956 -0.11087,-0.34983 -0.14726,-0.52934 -0.72776,-3.59219 -1.42985,-7.1895 -2.14478,-10.78426 0.26056,-1.21157 1.25165,-1.92728 2.04588,-2.78462 1.14862,-1.17894 2.32487,-2.31701 3.59228,-3.37042 0.56876,-0.5143 1.05717,-1.08656 1.62653,-1.6 0,0 2.67877,10.18161 2.67877,10.18161 l 0,0 c -0.55808,0.52781 -1.08599,1.08664 -1.67744,1.57834 -1.22458,1.06055 -2.37546,2.18368 -3.46066,3.38734 -0.67828,0.72273 -1.41243,1.45327 -1.16068,2.52922 -0.67037,-3.23167 -1.33659,-6.46421 -2.01115,-9.69501 -0.0372,-0.17806 0.0613,0.35867 0.099,0.53664 0.75862,3.58715 1.48395,7.18167 2.28974,10.75853 0.71905,3.19185 -1.36723,-6.3993 -2.02952,-9.6034 -0.0936,-0.45247 0.47027,1.91283 0.44673,1.3122 0.46591,2.01666 1.1069,3.97489 1.7711,5.93296 0.49013,1.2146 0.30191,0.83862 0.884,1.94619 0.13604,0.25885 0.37496,0.48241 0.41709,0.77179 3.82437,26.2777 2.3489,13.79615 1.13761,10.49016 -0.73468,-1.05302 -1.31724,-2.207 -2.08625,-3.24072 -0.58035,-0.91843 -1.0174,-1.86828 -1.47074,-2.8494 -0.33297,-1.19935 -0.82251,-2.35287 -1.11974,-3.56617 -2.26796,-4.13968 -2.59442,-8.94961 -3.4963,-13.57887 0.0548,-1.22081 1.2432,-1.2735 2.15335,-0.81959 1.17641,0.75509 2.4609,1.20918 3.73636,1.7804 1.47567,0.72709 2.88511,1.59596 4.50451,1.97463 1.37102,0.46566 2.74419,0.93334 4.06768,1.524 1.26607,0.59288 2.43482,1.34324 3.67506,1.97331 1.16699,0.58502 2.15539,1.37826 3.24147,2.07765 1.10282,0.6865 2.16133,1.44674 3.20512,2.21559 0.99423,0.90865 2.24748,1.52736 3.11968,2.59164 0.85654,0.96953 1.69768,1.94884 2.55634,2.91773 0.76508,0.86866 1.39759,1.80219 1.92166,2.83235 0.51211,1.21443 1.21452,2.3488 1.65695,3.59638 0.67597,1.36745 0.76259,2.88808 1.4516,4.25048 1.9414,6.7979 5.32312,25.37201 1.12416,4.48832 0.12496,0.46867 0.34772,0.90969 0.44962,1.38389 0.94767,4.40966 1.93987,8.75036 2.58046,13.1918 0.21932,1.47306 0.47995,2.94379 0.55483,4.4337 0.0296,1.71812 0.10699,3.44211 -0.029,5.1571 0,0 -3.40991,-10.03603 -3.40991,-10.03603 z"
       inkscape:connector-curvature="0" />
    <path
       style="fill:#127600;fill-opacity:0.54117647;stroke:none"
       id="path4287-3-4"
       d="m 452.19031,401.6859 c -1.40256,0.56329 -2.87708,0.91914 -4.23431,1.6349 -1.21341,0.62749 -2.42884,1.27167 -3.60242,2.00861 2.01789,-1.29644 -3.88876,2.31707 -1.89538,1.02519 13.60095,-8.81449 9.21528,-6.17324 6.53751,-4.02658 -2.90707,1.88081 -5.81413,3.76162 -8.7212,5.64243 -0.18858,0.12075 -0.75438,0.48297 -0.56581,0.36213 2.52614,-1.61851 5.04528,-3.25357 7.57857,-4.85516 0.21446,-0.13563 -0.41531,0.30162 -0.62098,0.45643 -1.83172,1.37861 0.62316,-0.4401 -1.24932,0.94197 -1.04455,0.98516 -2.19967,1.76 -3.28858,2.66244 -0.90523,0.88582 -1.8157,1.77317 -2.65489,2.75388 -0.7648,0.76549 -1.38552,1.67572 -1.99983,2.61287 -0.70966,1.11456 -1.25717,2.36353 -1.90085,3.53313 -0.66139,1.19535 -1.11506,2.50899 -1.50674,3.86436 -0.4445,1.2827 -0.79422,2.61276 -1.15028,3.93628 -0.26721,1.34157 -0.7224,2.60154 -0.9954,3.94026 -0.21906,1.49098 -0.58182,2.93712 -0.81195,4.42541 -0.21212,1.52307 -0.28178,3.06867 -0.347,4.61028 -0.005,1.8521 -0.27347,3.66201 -0.53861,5.47527 -0.23824,1.5033 -0.25354,3.04174 -0.53508,4.5337 -0.0991,1.48051 -0.41189,0.39328 0.18477,-0.32549 3.0435,-1.63039 1.47716,-0.80457 -7.42148,4.7888 -0.15991,0.10054 0.30187,-0.23979 0.44783,-0.3685 0.46981,-0.41444 0.92447,-0.85271 1.36396,-1.31411 0.80147,-0.95731 1.80344,-1.58673 2.69549,-2.39761 0.75504,-0.65485 1.47647,-1.37939 2.14049,-2.1705 0.80815,-0.98387 1.49305,-2.10412 2.27359,-3.11928 2.25338,-3.34822 -1.45143,-0.64455 8.78692,-3.92121 0.28317,-0.0901 -0.35575,0.57171 -0.55005,0.8404 -0.53498,0.73974 -0.83429,1.02242 -1.44692,1.68849 -1.42509,1.39799 -2.96212,2.5933 -4.50401,3.78102 -0.3706,0.18586 -0.64127,0.56957 -0.98885,0.79878 -2.87806,1.89772 -5.84087,3.60581 -8.66475,5.62262 -2.52544,1.80366 5.17357,-3.33474 7.76861,-4.98262 0.14444,-0.0917 -0.27143,0.2214 -0.41575,0.31342 -2.88832,1.84089 -5.78731,3.65628 -8.68099,5.48442 -1.09885,0.088 -1.95425,-0.74153 -2.8821,-1.32143 -1.2898,-0.85688 -2.55151,-1.75509 -3.76339,-2.77461 -0.57934,-0.44509 -1.18838,-0.78823 -1.76713,-1.23421 0,0 8.03475,-5.86646 8.03475,-5.86646 l 0,0 c 0.58824,0.4298 1.19555,0.81855 1.76118,1.29428 1.20742,0.97229 2.45013,1.84826 3.74541,2.63097 0.78433,0.49806 1.58909,1.05262 2.44589,0.46567 -2.59458,1.67262 -5.19092,3.34111 -7.78372,5.01787 -0.14289,0.0925 0.29118,-0.17184 0.43388,-0.26477 2.87641,-1.87187 5.7673,-3.71089 8.62329,-5.62936 2.54857,-1.71198 -5.12794,3.35396 -7.70097,5.00981 -0.36332,0.23391 1.51764,-1.0674 1.01052,-0.86295 1.60736,-1.09385 3.1217,-2.35461 4.63018,-3.63975 0.91646,-0.87944 0.64176,-0.56878 1.44417,-1.51305 0.18753,-0.22068 0.31957,-0.53915 0.55631,-0.67007 21.49809,-11.88764 11.20276,-6.60033 8.678,-4.33587 -0.71823,1.08863 -1.56015,2.04729 -2.25344,3.16631 -0.64131,0.88585 -1.34476,1.63021 -2.0709,2.40108 -0.94217,0.70938 -1.80662,1.56995 -2.76951,2.24587 -2.97634,3.62656 -7.00344,5.40911 -10.73447,7.74357 -1.05604,0.30748 -1.39387,-0.92818 -1.23051,-2.02239 0.35496,-1.46467 0.42624,-2.95312 0.59977,-4.46711 0.2573,-1.77143 0.652,-3.51553 0.57634,-5.33409 0.0599,-1.58302 0.12088,-3.16893 0.29917,-4.7393 0.19437,-1.51056 0.54714,-2.96576 0.77961,-4.46025 0.21204,-1.4039 0.64591,-2.68199 0.97554,-4.03489 0.31452,-1.36666 0.70292,-2.70872 1.10231,-4.03786 0.53097,-1.31878 0.75053,-2.82357 1.44449,-4.06039 0.61689,-1.19198 1.24592,-2.37067 1.86176,-3.56471 0.55329,-1.06549 1.19465,-2.01079 1.94524,-2.87081 0.9109,-0.90255 1.70655,-1.98153 2.66293,-2.82062 1.00121,-1.12087 2.27844,-1.66695 3.27212,-2.80003 5.32685,-4.07782 20.35536,-13.19497 3.5559,-2.52638 0.36945,-0.27178 0.69117,-0.63827 1.07102,-0.88743 3.53222,-2.31699 6.99457,-4.66024 10.62959,-6.66338 1.20392,-0.67157 2.39566,-1.38597 3.64955,-1.91051 1.45993,-0.54511 2.9131,-1.14229 4.41116,-1.51209 0,0 -7.73027,6.59284 -7.73027,6.59284 z"
       inkscape:connector-curvature="0" />
    <path
       style="fill:#127600;fill-opacity:0.54117647;stroke:none"
       id="path4287-3-4-3"
       d="m 436.5279,494.11502 c -0.15749,1.61774 -0.58038,3.2248 -0.54695,4.85791 0.0163,1.45514 0.0498,2.91889 0.20724,4.37782 -0.30261,-2.52014 0.38573,4.78476 0.0746,2.2908 -2.12269,-17.01638 -1.65709,-11.60908 -0.7914,-8.09585 0.45023,3.63581 0.90045,7.27162 1.35067,10.90744 0.0278,0.23535 0.11133,0.94146 0.0833,0.70608 -0.37396,-3.15311 -0.7698,-6.30583 -1.12142,-9.45934 -0.0298,-0.26698 0.10012,0.53247 0.15569,0.79831 0.4944,2.36763 -0.13672,-0.79401 0.33905,1.61549 0.4986,1.42904 0.70745,2.88462 1.0916,4.32497 0.467,1.25113 0.9328,2.50809 1.53941,3.73117 0.41317,1.06382 1.06311,2.04176 1.74589,3.024 0.82354,1.14736 1.88254,2.1868 2.80226,3.29037 0.93803,1.1314 2.11901,2.10317 3.37949,3.02984 1.15235,0.95038 2.40833,1.82531 3.65372,2.70395 1.31386,0.79744 2.43557,1.74945 3.74315,2.55153 1.50301,0.80881 2.87822,1.74271 4.3722,2.56145 1.54177,0.81463 3.18634,1.49656 4.82903,2.17248 2.01365,0.73946 3.83694,1.72348 5.66551,2.70584 1.50588,0.83277 3.17254,1.4578 4.64228,2.32912 1.55753,0.68537 0.20184,0.5654 -0.25286,-0.31272 -0.10263,-3.6722 -0.0642,-1.78756 1.13551,9.27684 0.0216,0.19885 -0.0952,-0.39517 -0.15512,-0.5913 -0.19306,-0.63139 -0.42038,-1.25714 -0.68123,-1.87698 -0.60186,-1.17632 -0.73653,-2.422 -1.12919,-3.63032 -0.29806,-1.01026 -0.69048,-2.01472 -1.18692,-2.9885 -0.62712,-1.19347 -1.47047,-2.31847 -2.14682,-3.49691 -2.40719,-3.56757 -1.49944,1.18755 0.55954,-10.2905 0.0575,-0.31725 0.42696,0.58031 0.61274,0.87999 0.51143,0.82512 0.65473,1.23475 1.04327,2.10787 0.73896,1.97101 1.19573,3.97298 1.64157,5.97676 -0.001,0.44214 0.26772,0.86334 0.32627,1.29977 0.48458,3.61368 0.7161,7.23646 1.36012,10.84347 0.57595,3.22581 -0.78768,-6.46556 -1.15576,-9.69882 -0.0205,-0.17995 0.0919,0.35763 0.11277,0.5376 0.41706,3.60134 0.80049,7.2032 1.20072,10.80482 -0.50808,1.12738 -1.88137,1.64902 -3.02268,2.34165 -1.64182,0.94269 -3.31318,1.84107 -5.08926,2.64182 -0.803,0.39957 -1.51132,0.86908 -2.31497,1.26769 0,0 -1.97184,-10.31375 -1.97184,-10.31375 l 0,0 c 0.79125,-0.41448 1.54829,-0.86419 2.37711,-1.23797 1.72219,-0.81504 3.35891,-1.70334 4.92297,-2.68089 0.97333,-0.58237 2.01941,-1.16266 1.8512,-2.24717 0.39528,3.24261 0.78509,6.48533 1.18584,9.72781 0.0222,0.17873 -0.0271,-0.35762 -0.0499,-0.53633 -0.45733,-3.60179 -0.87093,-7.20495 -1.39023,-10.80491 -0.46341,-3.21248 0.83368,6.42779 1.22255,9.64232 0.055,0.45395 -0.32816,-1.93197 -0.38425,-1.34674 -0.30764,-2.03166 -0.84815,-4.03702 -1.41841,-6.0462 -0.45389,-1.25977 -0.2666,-0.86352 -0.85375,-2.03558 -0.13723,-0.27393 -0.41141,-0.53145 -0.42386,-0.81872 -1.12877,-26.08608 -1.02985,-13.75436 0.0482,-10.34657 0.79061,1.1456 1.37171,2.36265 2.2091,3.49551 0.61208,0.98875 1.03596,1.9832 1.47622,3.01072 0.25461,1.21791 0.71653,2.4185 0.9233,3.64375 2.31294,4.39668 2.04064,9.10711 2.53198,13.74196 -0.24557,1.17183 -1.77663,1.0179 -2.87823,0.42174 -1.39967,-0.93349 -2.98114,-1.59436 -4.53422,-2.36702 -1.78735,-0.958 -3.46943,-2.04177 -5.49107,-2.68742 -1.69068,-0.68705 -3.38393,-1.3763 -4.99578,-2.17606 -1.53789,-0.79202 -2.92846,-1.71958 -4.42792,-2.5431 -1.41204,-0.76731 -2.56521,-1.7053 -3.8571,-2.56931 -1.31518,-0.85443 -2.56298,-1.77258 -3.79067,-2.69651 -1.1441,-1.05066 -2.66186,-1.86544 -3.62715,-3.04565 -0.95882,-1.08582 -1.89649,-2.17844 -2.85812,-3.26404 -0.85605,-0.97245 -1.53283,-1.9848 -2.05673,-3.07197 -0.48211,-1.2634 -1.21965,-2.48215 -1.60766,-3.76561 -0.6702,-1.43973 -0.56286,-2.92604 -1.25046,-4.36313 -1.51252,-6.9125 -3.18022,-25.46817 -0.79655,-4.5368 -0.0928,-0.47505 -0.31511,-0.94018 -0.37766,-1.4166 -0.58157,-4.43025 -1.23013,-8.80145 -1.41349,-13.20951 -0.0696,-1.46317 -0.19249,-2.93121 -0.0746,-4.38577 0.20881,-1.66759 0.3572,-3.34908 0.77784,-4.98507 0,0 2.93006,10.29897 2.93006,10.29897 z"
       inkscape:connector-curvature="0" />
  </g>
</svg>
