<?xml version="1.0" encoding="UTF-8" standalone="no"?>
<svg
   xmlns:xhtml="http://www.w3.org/1999/xhtml"
   xmlns:dc="http://purl.org/dc/elements/1.1/"
   xmlns:cc="http://creativecommons.org/ns#"
   xmlns:rdf="http://www.w3.org/1999/02/22-rdf-syntax-ns#"
   xmlns:svg="http://www.w3.org/2000/svg"
   xmlns="http://www.w3.org/2000/svg"
   xmlns:sodipodi="http://sodipodi.sourceforge.net/DTD/sodipodi-0.dtd"
   xmlns:inkscape="http://www.inkscape.org/namespaces/inkscape"
   width="509.17319"
   height="447.29251"
   version="1.1"
   id="svg2"
   inkscape:version="0.91 r13725"
   sodipodi:docname="lean_learning.svg">
  <metadata
     id="metadata64">
    <rdf:RDF>
      <cc:Work
         rdf:about="">
        <dc:format>image/svg+xml</dc:format>
        <dc:type
           rdf:resource="http://purl.org/dc/dcmitype/StillImage" />
        <dc:title></dc:title>
      </cc:Work>
    </rdf:RDF>
  </metadata>
  <defs
     id="defs62" />
  <sodipodi:namedview
     pagecolor="#ffffff"
     bordercolor="#666666"
     borderopacity="1"
     objecttolerance="10"
     gridtolerance="10"
     guidetolerance="10"
     inkscape:pageopacity="0"
     inkscape:pageshadow="2"
     inkscape:window-width="1869"
     inkscape:window-height="1056"
     id="namedview60"
     showgrid="false"
     inkscape:zoom="0.96932555"
     inkscape:cx="-227.57565"
     inkscape:cy="107.15282"
     inkscape:window-x="1131"
     inkscape:window-y="333"
     inkscape:window-maximized="1"
     inkscape:current-layer="g4164"
     fit-margin-top="10"
     fit-margin-left="10"
     fit-margin-right="10"
     fit-margin-bottom="5" />
  <xhtml:defs>
    <xhtml:style
       type="text/css"><![CDATA[
.node circle { fill: rgb(255, 255, 255); stroke: steelblue; stroke-width: 3px; }
.node text { font: 12px sans-serif; }
.link { fill: none; stroke: rgb(204, 204, 204); stroke-width: 2px; }]]></xhtml:style>
  </xhtml:defs>
  <xhtml:defs
     style="height:auto;overflow:visible;overflow-x:visible;overflow-y:visible;perspective-origin:50% 50%;transform-origin:50% 50%;width:auto;">
    <xhtml:style
       type="text/css"
       style="display:none;height:auto;overflow:visible;overflow-x:visible;overflow-y:visible;perspective-origin:50% 50%;transform-origin:50% 50%;width:auto;" />
  </xhtml:defs>
  <g
     transform="translate(-303.86642,272.33966)"
     style="overflow:visible"
     id="g4">
    <g
       id="g4164"
       transform="matrix(1.8,0,0,1.8,-37.335172,-200.11734)">
      <path
         inkscape:connector-curvature="0"
         id="path6"
         style="overflow:visible;fill:none;stroke:#cccccc;stroke-width:1.94444442;stroke-miterlimit:4;stroke-dasharray:none"
         d="m 325.32446,78.220825 c 0,48.051325 39.16819,48.051325 39.16819,96.102685"
         class="link" />
      <path
         inkscape:connector-curvature="0"
         id="path16"
         style="overflow:visible;fill:none;stroke:#cccccc;stroke-width:1.94444442;stroke-miterlimit:4;stroke-dasharray:none"
         d="m 411.29845,4.0119534 c 0,26.7879846 -85.18137,26.7879846 -85.18137,53.5759686"
         class="link" />
      <g
         id="g18"
         style="overflow:visible"
         transform="translate(386.26792,200)"
         class="node" />
      <g
         id="g24"
         style="overflow:visible"
         transform="translate(364.40223,185.09846)"
         class="node">
        <circle
           cy="0"
           cx="0"
           id="circle26"
           style="overflow:visible;fill:#ffffff;stroke:#4682b4;stroke-width:3px"
           r="10" />
        <text
           id="text28"
           style="font-size:12px;line-height:14px;font-family:sans-serif;text-anchor:middle;overflow:visible"
           y="18">Implementation</text>
      </g>
      <g
         id="g30"
         style="overflow:visible"
         transform="translate(326.56118,67.331237)"
         class="node">
        <circle
           cy="0"
           cx="0"
           id="circle32"
           style="overflow:visible;fill:#ffffff;stroke:#4682b4;stroke-width:3px"
           r="10" />
        <text
           id="text34"
           style="font-size:12px;line-height:14px;font-family:sans-serif;text-anchor:middle;overflow:visible"
           dy="3.0862197e-41"
           y="-18">Strategy</text>
      </g>
      <g
         id="g54"
         style="overflow:visible"
         transform="translate(410.85435,-7.4507706)"
         class="node">
        <circle
           cy="0"
           cx="0"
           id="circle56"
           style="overflow:visible;fill:#ffffff;stroke:#4682b4;stroke-width:3px"
           r="10" />
        <text
           id="text58"
           style="font-size:12px;line-height:14px;font-family:sans-serif;text-anchor:middle;overflow:visible"
           dy="3.0862197e-41"
           y="-18">Vision</text>
      </g>
      <path
         style="fill:none;fill-rule:evenodd;stroke:#000000;stroke-width:1.20951116;stroke-linecap:butt;stroke-linejoin:miter;stroke-miterlimit:4;stroke-dasharray:1.20951109, 2.41902217;stroke-dashoffset:0;stroke-opacity:1"
         d="m 195.11174,113.51179 c 263.0087,0.013 263.0087,0.013 263.0087,0.013 l 0.68491,0"
         id="path4165"
         inkscape:connector-curvature="0" />
      <path
         style="fill:#ab0000;fill-opacity:0.53987732;stroke:none;stroke-width:2;stroke-miterlimit:4;stroke-dasharray:2, 4;stroke-dashoffset:0"
         id="path4169"
         d="m 301.75985,84.022523 c -2.17535,1.500649 -4.46797,2.848191 -6.7497,4.186846 -1.16567,0.815872 -2.36426,1.563179 -3.323,2.624287 -0.1305,0.118447 -0.261,0.236886 -0.39149,0.355328 0.29019,-0.203191 -1.04124,1.053565 -0.78807,0.783253 9.55863,-10.205596 6.47831,-7.204357 4.74057,-4.849483 -0.64759,0.809039 -0.97971,1.812847 -1.36274,2.764714 -0.36757,0.923171 -0.92159,1.751766 -1.23275,2.696301 -0.39544,1.199442 -0.79905,2.39607 -1.18953,3.597348 -0.3005,1.267634 -0.59695,2.537235 -0.87674,3.80998 -0.36808,1.438313 -0.44979,2.911243 -0.48688,4.387263 -0.12889,1.4968 -0.2391,2.9947 -0.41207,4.4873 -0.10044,1.20162 -0.25368,2.39773 -0.39019,3.59577 -0.0468,1.17287 -0.18905,2.33834 -0.27319,3.50813 -0.0655,1.13209 0.16896,2.24036 0.43804,3.33188 0.29084,1.10385 0.6281,2.19474 0.95919,3.28697 0.38788,1.0773 1.06455,2.01812 1.7359,2.93522 0.75953,0.97557 1.32984,2.07746 2.06403,3.06991 0.76275,0.91111 1.30978,1.96628 1.9346,2.96992 0.69086,0.89685 1.27235,1.86547 1.95558,2.7667 0.65213,0.86021 1.23569,1.77563 1.95797,2.57931 0.92726,0.98247 1.82377,1.98987 2.72101,3.0001 0.89235,1.04086 1.79728,2.07252 2.73954,3.06868 0.85725,0.86649 1.85954,1.55308 2.64499,2.48865 3.0026,2.68071 -1.77348,7.88249 -5.46321,7.94644 -1.29788,-0.0787 -2.58731,-0.24271 -3.88078,-0.38372 -1.29879,-0.0361 -2.57625,-0.29258 -3.87389,-0.33379 -0.99875,-0.0982 -1.98158,-0.3391 -2.98236,-0.39708 -0.99275,0.0185 -1.9546,0.29777 -2.90458,0.5609 -1.30349,0.37493 -2.60244,0.7655 -3.90014,1.15999 -0.53368,0.16262 -0.71387,0.21423 -1.21622,0.37873 -0.14913,0.0488 -0.54149,0.28152 -0.4429,0.1594 5.50377,-6.81255 2.62219,-6.89354 5.81349,-6.71489 1.24305,0.12648 2.48925,0.21932 3.72307,0.43043 1.43258,0.16664 2.85567,0.39308 4.29347,0.52268 1.01298,0.38951 2.06992,0.18363 3.10771,0.27202 1.07164,0.11737 1.78588,-0.084 2.73241,-0.54158 0.61552,-0.18919 0.96352,-0.60201 1.38931,-1.04756 0.16926,-0.1771 0.6918,-0.6939 0.52327,-0.51609 -5.60178,5.90949 -6.78091,7.4146 -4.72173,4.84966 1.05083,-1.20211 1.91742,-2.53947 2.65612,-3.95105 0.55523,-1.24621 1.12036,-2.48633 1.62539,-3.75385 0.29932,-1.13729 0.52919,-2.29044 0.8897,-3.41237 0.32412,-0.84679 0.59732,-1.7073 0.85628,-2.57633 0,0 6.54701,-5.46198 6.54701,-5.46198 l 0,0 c -0.43287,0.8022 -0.44892,1.74185 -0.92084,2.53017 -0.33133,1.13894 -0.79221,2.25571 -0.87156,3.45475 -0.43738,1.32183 -1.07002,2.541 -1.59224,3.82978 -0.63379,1.48 -1.49636,2.8829 -2.54211,4.10746 -2.34815,2.99347 -0.71222,0.9438 -6.73476,7.35733 -0.6088,0.64831 -1.35754,1.10449 -2.18691,1.41073 -0.98364,0.34691 -1.99409,0.41616 -3.03178,0.32071 -1.05933,0.003 -2.09485,-0.0704 -3.12863,-0.32573 -1.43997,-0.16852 -2.87115,-0.39 -4.30982,-0.56528 -1.22565,-0.16065 -2.46038,-0.268 -3.69633,-0.30423 -3.109,-0.0241 -0.44514,0.077 4.76944,-6.74448 0.0563,-0.0736 0.77591,-0.20406 0.91596,-0.24536 0.2277,-0.067 0.45455,-0.13693 0.68191,-0.20511 1.31289,-0.39559 2.62104,-0.80897 3.9451,-1.16605 1.03085,-0.25515 2.0809,-0.49476 3.1505,-0.38602 0.9791,0.13161 1.95289,0.30148 2.93725,0.39609 1.30287,0.10338 2.5984,0.28965 3.90333,0.37505 1.1724,0.14017 2.44531,0.38846 3.60103,0.0875 1.75686,-2.37391 1.43686,-1.92602 -5.29418,5.86209 -0.0524,0.0608 0.17384,0.005 0.23682,-0.0446 0.14935,-0.11831 -0.15306,-0.43049 -0.16087,-0.44002 -0.10987,-0.13254 -0.23572,-0.25101 -0.35358,-0.3765 -0.74664,-0.93751 -1.75506,-1.60193 -2.58439,-2.46296 -0.95079,-0.99976 -1.85428,-2.0445 -2.75038,-3.0931 -0.90178,-1.00091 -1.79474,-2.00695 -2.72777,-2.97851 -0.75555,-0.81088 -1.36784,-1.73668 -2.02827,-2.6241 -0.69351,-0.92663 -1.27533,-1.92349 -2.00064,-2.82832 -0.61331,-0.98436 -1.14614,-2.01922 -1.87611,-2.92592 -0.74578,-0.98649 -1.33163,-2.07468 -2.0682,-3.0673 -0.74464,-0.98066 -1.45131,-2.00904 -1.94739,-3.13982 -0.33451,-1.10273 -0.67511,-2.20385 -0.98467,-3.31393 -0.3069,-1.15249 -0.59437,-2.32036 -0.60585,-3.52058 0.0257,-1.18414 0.24984,-2.35048 0.23973,-3.53614 0.0984,-1.21553 0.30777,-2.41458 0.40611,-3.62737 0.1625,-1.48098 0.28341,-2.96202 0.45871,-4.44154 0.0685,-1.49588 -0.008,-3.01258 0.38016,-4.47468 0.23177,-1.30135 0.62454,-2.56553 0.82725,-3.8726 0.3304,-1.21059 0.76553,-2.391974 1.16582,-3.580357 0.27122,-0.988327 0.61188,-1.898273 1.19192,-2.756052 0.38801,-0.993706 0.76186,-1.991639 1.21211,-2.952672 0.23369,-0.285519 0.39702,-0.626621 0.64642,-0.898518 2.38385,-2.598832 4.73888,-5.229041 7.28743,-7.6672 1.05843,-0.918627 2.23241,-1.681619 3.42611,-2.413677 2.3079,-1.359245 4.59804,-2.749823 6.82784,-4.234001 0,0 -5.00016,6.846573 -5.00016,6.846573 z"
         inkscape:connector-curvature="0" />
      <text
         xml:space="preserve"
         style="font-style:italic;font-variant:normal;font-weight:normal;font-stretch:normal;font-size:11.11111069px;line-height:125%;font-family:sans-serif;-inkscape-font-specification:'sans-serif Italic';letter-spacing:0px;word-spacing:0px;fill:#000000;fill-opacity:1;stroke:none;stroke-width:1px;stroke-linecap:butt;stroke-linejoin:miter;stroke-opacity:1"
         x="258.18219"
         y="89.160011"
         id="text4171"
         sodipodi:linespacing="125%"><tspan
           sodipodi:role="line"
           id="tspan4173"
           x="258.18219"
           y="89.160011">Define</tspan><tspan
           sodipodi:role="line"
           x="258.18219"
           y="103.0489"
           id="tspan4175">hypothesis</tspan></text>
      <text
         xml:space="preserve"
         style="font-style:italic;font-variant:normal;font-weight:normal;font-stretch:normal;font-size:11.11111069px;line-height:125%;font-family:sans-serif;-inkscape-font-specification:'sans-serif Italic';letter-spacing:0px;word-spacing:0px;overflow:visible;fill:#000000;fill-opacity:1;stroke:none;stroke-width:1px;stroke-linecap:butt;stroke-linejoin:miter;stroke-opacity:1"
         x="273.23264"
         y="146.60646"
         id="text4171-6"
         sodipodi:linespacing="125%"><tspan
           sodipodi:role="line"
           x="273.23264"
           y="146.60646"
           id="tspan4175-3">Experiment:</tspan><tspan
           sodipodi:role="line"
           x="273.23264"
           y="160.49535"
           id="tspan4200">Optimize for hypothesis testing</tspan></text>
      <path
         style="overflow:visible;fill:#009213;fill-opacity:0.62745098;stroke:none;stroke-width:2;stroke-miterlimit:4;stroke-dasharray:2, 4;stroke-dashoffset:0"
         id="path4169-5"
         d="m 407.12886,147.55451 c 2.07923,-1.45572 4.29122,-2.75292 6.49288,-4.04144 1.11315,-0.79194 2.26578,-1.51348 3.14689,-2.55988 0.1222,-0.11612 0.24445,-0.23222 0.36666,-0.34834 -0.27709,0.19723 0.96567,-1.03634 0.73212,-0.77004 -8.8176,10.05432 -5.95071,7.10551 -4.39178,4.77176 0.58702,-0.80031 0.83611,-1.80715 1.14155,-2.75989 0.29225,-0.92414 0.78239,-1.747 1.01539,-2.69444 0.29621,-1.2031 0.60099,-2.40314 0.89198,-3.60826 0.19366,-1.27497 0.38302,-2.55207 0.55521,-3.83283 0.24806,-1.4457 0.20041,-2.93519 0.10787,-4.42898 -0.001,-1.51214 -0.0211,-3.02592 0.023,-4.5325 -0.004,-1.21402 0.0464,-2.4209 0.0794,-3.63023 -0.0559,-1.18647 -0.0141,-2.36265 -0.0318,-3.5449 -0.0333,-1.14464 -0.36946,-2.27397 -0.73935,-3.38737 -0.3931,-1.12651 -0.83195,-2.24136 -1.26513,-3.35727 -0.48939,-1.10251 -1.26038,-2.0753 -2.02386,-3.02389 -0.85829,-1.01042 -1.53534,-2.1432 -2.36933,-3.16997 -0.85587,-0.94523 -1.50514,-2.03 -2.22895,-3.064885 -0.78151,-0.928687 -1.45816,-1.926814 -2.23233,-2.8597 -0.73889,-0.890419 -1.41296,-1.83473 -2.21822,-2.669961 -1.0294,-1.022355 -2.02978,-2.069063 -3.03112,-3.118637 -0.99907,-1.080455 -2.01012,-2.151964 -3.05602,-3.188631 -0.94799,-0.902828 -2.02758,-1.627722 -2.9087,-2.598415 -3.28922,-2.803444 1.10756,-7.930939 4.85321,-7.886977 1.32646,0.117988 2.65188,0.322063 3.97937,0.502998 1.32364,0.0748 2.64506,0.372231 3.96798,0.452217 1.02407,0.128883 2.04455,0.401833 3.06714,0.490049 1.00769,0.01057 1.96095,-0.243966 2.90354,-0.482473 1.29235,-0.340831 2.57832,-0.698623 3.86288,-1.059826 0.52829,-0.148802 0.70689,-0.195944 1.20312,-0.347679 0.14724,-0.04524 0.52569,-0.269136 0.43622,-0.148411 -4.99449,6.737427 -2.0577,6.904364 -5.31799,6.629381 -1.27495,-0.164722 -2.55013,-0.295474 -3.82317,-0.545653 -1.47119,-0.210978 -2.93799,-0.482252 -4.41121,-0.655874 -1.06425,-0.424346 -2.12065,-0.24699 -3.18357,-0.367102 -1.09987,-0.15044 -1.80826,0.03244 -2.73019,0.467975 -0.6091,0.173468 -0.9265,0.581309 -1.32007,1.020004 -0.15646,0.174383 -0.64211,0.682377 -0.48645,0.507268 5.1738,-5.819918 6.2398,-7.309526 4.37257,-4.77249 -0.96229,1.186517 -1.72534,2.515417 -2.3518,3.923264 -0.45454,1.245779 -0.91966,2.485096 -1.32129,3.75393 -0.20382,1.143026 -0.33596,2.304099 -0.60355,3.429747 -0.25487,0.848043 -0.45666,1.711494 -0.64324,2.584018 0,0 -6.1743,5.338828 -6.1743,5.338828 l 0,0 c 0.36931,-0.799693 0.30272,-1.750871 0.71294,-2.535364 0.23641,-1.143727 0.60641,-2.261194 0.58133,-3.473206 0.328,-1.325847 0.86366,-2.541942 1.28089,-3.8318 0.51377,-1.480244 1.26693,-2.875635 2.22209,-4.085038 2.12319,-2.962517 0.64083,-0.934864 6.19794,-7.252866 0.56175,-0.638669 1.28272,-1.078602 2.09892,-1.364307 0.96945,-0.322339 1.99061,-0.362714 3.05405,-0.235469 1.07677,0.02843 2.13601,0.132994 3.20958,0.422096 1.47887,0.213108 2.95346,0.47959 4.4316,0.699514 1.26026,0.198817 2.52508,0.343944 3.78484,0.417053 3.16298,0.116079 0.44578,-0.06484 -4.25391,6.690116 -0.0508,0.07289 -0.77084,0.183797 -0.90961,0.221462 -0.22545,0.06153 -0.45013,0.125053 -0.67519,0.187584 -1.29989,0.361968 -2.59342,0.742031 -3.90805,1.064681 -1.02554,0.227981 -2.07195,0.439753 -3.169,0.298092 -1.00706,-0.162151 -2.01207,-0.362888 -3.0212,-0.487715 -1.33373,-0.143095 -2.66731,-0.369929 -4.00156,-0.494873 -1.20431,-0.176513 -2.52037,-0.465481 -3.66882,-0.194783 -1.5767,2.35246 -1.29088,1.908282 4.86526,-5.780992 0.048,-0.06003 -0.17719,-0.01049 -0.23685,0.03814 -0.14139,0.11541 0.19358,0.440502 0.20242,0.450365 0.12339,0.137482 0.26179,0.261161 0.3927,0.391745 0.8418,0.971479 1.92568,1.674114 2.84482,2.570584 1.05488,1.040562 2.06562,2.125282 3.06919,3.213697 1.00513,1.040259 2.00179,2.085477 3.03609,3.096949 0.83971,0.843522 1.54389,1.799196 2.29365,2.717427 0.78686,0.958896 1.46635,1.985647 2.28357,2.923404 0.71041,1.015027 1.34344,2.078811 2.1656,3.018615 0.84526,1.021077 1.53689,2.140428 2.37334,3.167451 0.84359,1.015133 1.65279,2.077483 2.25693,3.237323 0.43776,1.12658 0.88078,2.25192 1.29319,3.38539 0.41371,1.17627 0.80904,2.36753 0.92661,3.58344 0.0784,1.19851 -0.0466,2.37314 0.0683,3.57425 0.007,1.22817 -0.0999,2.43637 -0.0928,3.66175 -0.0345,1.49513 -0.0268,2.99153 -0.0745,4.48481 0.0624,1.51298 0.27372,3.0513 0.008,4.52065 -0.12082,1.31114 -0.40864,2.5799 -0.49935,3.89771 -0.22908,1.21632 -0.56725,2.39997 -0.86935,3.59176 -0.18852,0.99297 -0.45461,1.9045 -0.96862,2.75614 -0.3068,0.99497 -0.59884,1.99464 -0.97181,2.95469 -0.21238,0.28228 -0.34835,0.62293 -0.57792,0.89095 -2.1943,2.56179 -4.35655,5.15621 -6.73249,7.55043 -0.99503,0.89917 -2.12127,1.63731 -3.27028,2.34354 -2.22648,1.30861 -4.43213,2.64947 -6.56818,4.0869 0,0 4.47948,-6.78672 4.47948,-6.78672 z"
         inkscape:connector-curvature="0" />
      <text
         xml:space="preserve"
         style="font-style:italic;font-variant:normal;font-weight:normal;font-stretch:normal;font-size:11.11111069px;line-height:125%;font-family:sans-serif;-inkscape-font-specification:'sans-serif Italic';letter-spacing:0px;word-spacing:0px;overflow:visible;fill:#000000;fill-opacity:1;stroke:none;stroke-width:1px;stroke-linecap:butt;stroke-linejoin:miter;stroke-opacity:1"
         x="357.48361"
         y="89.865982"
         id="text4171-66"
         sodipodi:linespacing="125%"><tspan
           sodipodi:role="line"
           x="357.48361"
           y="89.865982"
           id="tspan4175-5">Learn and</tspan><tspan
           sodipodi:role="line"
           x="357.48361"
           y="103.75487"
           id="tspan4240">formulate another...</tspan></text>
    </g>
  </g>
</svg>
